<svg xmlns="http://www.w3.org/2000/svg" width="600" height="400" viewBox="0 0 600 400">
  <!-- Definitions for reusable elements -->
  <defs>
    <!-- Gradient backgrounds -->
    <linearGradient id="userGradient" x1="0%" y1="0%" x2="100%" y2="100%">
      <stop offset="0%" stop-color="#3B82F6" />
      <stop offset="100%" stop-color="#1E40AF" />
    </linearGradient>
    
    <linearGradient id="llmGradient" x1="0%" y1="0%" x2="100%" y2="100%">
      <stop offset="0%" stop-color="#4F46E5" />
      <stop offset="100%" stop-color="#3730A3" />
    </linearGradient>
    
    <linearGradient id="mcpGradient" x1="0%" y1="0%" x2="100%" y2="100%">
      <stop offset="0%" stop-color="#D40000" />
      <stop offset="100%" stop-color="#A70000" />
    </linearGradient>
    
    <linearGradient id="serviceGradient" x1="0%" y1="0%" x2="100%" y2="100%">
      <stop offset="0%" stop-color="#2C3E50" />
      <stop offset="100%" stop-color="#1A2530" />
    </linearGradient>
    
    <!-- Arrow marker with better styling -->
    <marker id="arrow" markerWidth="10" markerHeight="10" refX="7" refY="5" orient="auto" markerUnits="userSpaceOnUse">
      <path d="M0,0 L0,10 L10,5 z" fill="#0E0606" />
    </marker>
    
    <!-- Shadow filter -->
    <filter id="shadow" x="-10%" y="-10%" width="120%" height="120%">
      <feDropShadow dx="2" dy="2" stdDeviation="2" flood-opacity="0.3" />
    </filter>
  </defs>
  
  <!-- Title -->
  <text x="300" y="30" text-anchor="middle" font-family="Arial, sans-serif" font-size="18" font-weight="bold" fill="#0E0606">LexiMentis MCP Architecture</text>
  
  <!-- Environment Boundaries -->
  <rect x="50" y="60" width="200" height="320" rx="10" ry="10" fill="#F8FAFC" stroke="#94A3B8" stroke-width="1" stroke-dasharray="5,5" />
  <text x="150" y="80" text-anchor="middle" font-family="Arial, sans-serif" font-size="14" font-weight="bold" fill="#0E0606">LexiMentis</text>
  
  <rect x="350" y="60" width="200" height="320" rx="10" ry="10" fill="#F8FAFC" stroke="#94A3B8" stroke-width="1" stroke-dasharray="5,5" />
  <text x="450" y="80" text-anchor="middle" font-family="Arial, sans-serif" font-size="14" font-weight="bold" fill="#0E0606">Law Firm</text>
  
  <!-- Main Components -->
  <!-- Attorney Box (Law Firm side) -->
  <rect x="400" y="110" width="100" height="50" rx="6" ry="6" fill="url(#userGradient)" filter="url(#shadow)" />
  <text x="450" y="140" text-anchor="middle" font-family="Arial, sans-serif" font-size="14" fill="white" font-weight="bold">Attorney</text>
  
  <!-- LexiMentis AI Platform Box -->
  <rect x="100" y="110" width="100" height="50" rx="6" ry="6" fill="url(#llmGradient)" filter="url(#shadow)" />
  <text x="150" y="140" text-anchor="middle" font-family="Arial, sans-serif" font-size="14" fill="white" font-weight="bold">AI Platform</text>
  
  <!-- MCP Server Box -->
  <rect x="100" y="220" width="100" height="50" rx="6" ry="6" fill="url(#mcpGradient)" filter="url(#shadow)" />
  <text x="150" y="250" text-anchor="middle" font-family="Arial, sans-serif" font-size="14" fill="white" font-weight="bold">MCP Servers</text>
  
  <!-- Law Firm Systems Box -->
  <rect x="400" y="220" width="100" height="50" rx="6" ry="6" fill="url(#serviceGradient)" filter="url(#shadow)" />
  <text x="450" y="240" text-anchor="middle" font-family="Arial, sans-serif" font-size="12" fill="white" font-weight="bold">Law Firm</text>
  <text x="450" y="258" text-anchor="middle" font-family="Arial, sans-serif" font-size="12" fill="white">Systems</text>
  
  <!-- Security boundary removed -->
  
  <!-- Connection Lines -->
  <!-- Attorney to AI Platform -->
  <path d="M400,135 C300,135 250,135 200,135" stroke="#0E0606" stroke-width="2" fill="none" marker-end="url(#arrow)" />
  <path d="M200,125 C250,125 300,125 400,125" stroke="#0E0606" stroke-width="2" fill="none" marker-end="url(#arrow)" />
  
  <!-- AI Platform to MCP Servers -->
  <path d="M150,160 C150,180 150,200 150,220" stroke="#0E0606" stroke-width="2" fill="none" marker-end="url(#arrow)" />
  <path d="M140,220 C140,200 140,180 140,160" stroke="#0E0606" stroke-width="2" fill="none" marker-end="url(#arrow)" />
  
  <!-- MCP Servers to Law Firm Systems -->
  <path d="M200,245 C300,245 340,245 400,245" stroke="#0E0606" stroke-width="2" fill="none" marker-end="url(#arrow)" />
  <path d="M400,235 C340,235 300,235 200,235" stroke="#0E0606" stroke-width="2" fill="none" marker-end="url(#arrow)" />
  
  <!-- Labels -->
  <text x="300" y="115" text-anchor="middle" font-family="Arial, sans-serif" font-size="11" fill="#0E0606">Natural Language Queries</text>
  <text x="300" y="225" text-anchor="middle" font-family="Arial, sans-serif" font-size="11" fill="#0E0606">Secure, Controlled Access</text>
  <text x="200" y="190" text-anchor="middle" font-family="Arial, sans-serif" font-size="11" fill="#0E0606">Process</text>
  
  <!-- No legend - removed for cleaner design -->
</svg>