<?xml version="1.0" encoding="UTF-8" standalone="no"?>
<!-- Created with Inkscape (http://www.inkscape.org/) -->

<svg
   width="120"
   height="30"
   viewBox="20 90 115 20"
   version="1.1"
   id="svg1"
   xmlns="http://www.w3.org/2000/svg"
   xmlns:svg="http://www.w3.org/2000/svg">
  <defs
     id="defs1">
    <linearGradient
       id="swatch12">
      <stop
         style="stop-color:#666666;stop-opacity:1;"
         offset="0"
         id="stop12" />
    </linearGradient>
  </defs>
  <g id="layer1">
    <path
       d="M 26.425629,105.71186 V 93.858551 h 2.201329 v 9.990649 h 6.197588 v 1.86266 z m 10.354729,0 V 93.858551 h 8.652917 v 1.845729 h -6.451588 v 8.16185 h 6.688654 v 1.84573 z m 2.031996,-5.11386 v -1.811859 h 5.892789 V 100.598 Z m 7.973709,5.11386 4.995323,-6.874919 v 1.659459 l -4.758257,-6.637849 h 2.489195 l 3.53906,4.910657 -1.015998,0.01693 3.505193,-4.92759 h 2.387595 l -4.72439,6.519319 v -1.591729 l 5.02919,6.925719 h -2.539995 l -3.725326,-5.21546 h 0.999064 l -3.674526,5.21546 z m 13.047113,0 V 93.858551 h 2.201329 v 11.853309 z m 5.613395,0 V 93.858551 h 1.811864 l 5.181589,8.652919 H 71.49176 l 5.096923,-8.652919 h 1.811863 l 0.01693,11.853309 h -2.082796 l -0.01693,-8.585182 h 0.440266 L 72.423091,104.3572 H 71.44096 l -4.402658,-7.230522 h 0.507999 v 8.585182 z m 16.382969,0 V 93.858551 h 8.652917 v 1.845729 h -6.451588 v 8.16185 h 6.688654 v 1.84573 z m 2.031996,-5.11386 v -1.811859 h 5.892789 V 100.598 Z m 9.524984,5.11386 V 93.858551 h 1.811864 l 7.433716,9.127049 h -0.89746 v -9.127049 h 2.18439 v 11.853309 h -1.81186 l -7.433719,-9.127048 h 0.897465 v 9.127048 z m 16.33216,0 v -9.990646 h -3.92853 v -1.862663 h 10.05838 v 1.862663 h -3.92852 v 9.990646 z m 8.00097,0 V 93.858551 h 2.20133 v 11.853309 z m 9.28792,0.16933 q -1.38853,0 -2.65853,-0.38946 -1.26999,-0.4064 -2.01506,-1.03293 l 0.762,-1.71027 q 0.7112,0.5588 1.76106,0.93133 1.04987,0.37254 2.15053,0.37254 0.93133,0 1.50707,-0.2032 0.57573,-0.2032 0.84666,-0.54187 0.27093,-0.3556 0.27093,-0.79586 0,-0.54187 -0.38946,-0.8636 -0.38947,-0.33867 -1.016,-0.52493 -0.6096,-0.2032 -1.3716,-0.37254 -0.74506,-0.16933 -1.50706,-0.38946 -0.74507,-0.23707 -1.3716,-0.592668 -0.6096,-0.372532 -0.99906,-0.982131 -0.38947,-0.609599 -0.38947,-1.557864 0,-0.965198 0.508,-1.761063 0.52493,-0.812798 1.5748,-1.286931 1.06679,-0.491065 2.69239,-0.491065 1.0668,0 2.11666,0.270932 1.04987,0.270933 1.8288,0.778932 l -0.69426,1.710264 q -0.79587,-0.474133 -1.64254,-0.694266 -0.84666,-0.237066 -1.62559,-0.237066 -0.9144,0 -1.49013,0.220133 -0.5588,0.220133 -0.82973,0.575732 -0.254,0.355599 -0.254,0.812799 0,0.541865 0.37253,0.880531 0.38947,0.321733 0.99906,0.507999 0.62654,0.186266 1.38853,0.372533 0.762,0.169333 1.50707,0.389466 0.762,0.220133 1.3716,0.575732 0.62653,0.355601 0.99906,0.965201 0.38947,0.6096 0.38947,1.54093 0,0.94826 -0.52494,1.76106 -0.508,0.79587 -1.57479,1.28693 -1.0668,0.47413 -2.6924,0.47413 z"
       id="text1"
       style="font-weight:600;font-size:16.9333px;line-height:0;font-family:Montserrat;-inkscape-font-specification:'Montserrat Semi-Bold';letter-spacing:0.211667px;word-spacing:0px;fill:#0e0606;fill-opacity:0.985994;stroke-width:0.264583"
       aria-label="LEXIMENTIS" />
    <path
       id="rect1"
       style="fill:#d40000;fill-opacity:0.985994;stroke-width:0.291"
       d="m 26.061457,108.21458 h 12.964582 v 1.32291 H 26.061457 Z" />
    <path
       style="fill:#d40000;fill-opacity:0.985994;stroke-width:0.443788"
       id="path2"
       d="m 61.010817,88.567627 a 1.8979974,1.7467328 0 0 1 1.85721,1.782841 1.8979974,1.7467328 0 0 1 -1.936538,1.709862 1.8979974,1.7467328 0 0 1 -1.858657,-1.781562 1.8979974,1.7467328 0 0 1 1.935148,-1.711194 l -0.03754,1.746391 z" />
  </g>
</svg>
